<?xml version="1.0" encoding="utf-8"?>
<!-- Generator: Adobe Illustrator 21.1.0, SVG Export Plug-In . SVG Version: 6.00 Build 0)  -->
<svg version="1.1" id="Layer_1" xmlns="http://www.w3.org/2000/svg" xmlns:xlink="http://www.w3.org/1999/xlink" x="0px" y="0px"
	 viewBox="0 0 520 517.5" style="enable-background:new 0 0 520 517.5;" xml:space="preserve">
<style type="text/css">
	.st0{fill:#6EC7B1;}
	.st1{fill:#6FC7B2;}
	.st2{fill:#2F1E11;stroke:#2E1E12;stroke-miterlimit:10;}
	.st3{fill:#F4AB6A;}
	.st4{fill:none;}
	.st5{font-family:'ShorelinesScriptBold';}
	.st6{font-size:31.7771px;}
	.st7{letter-spacing:1;}
	.st8{fill:#FAD568;}
	.st9{font-family:'AlpacaScarlettDemo';}
	.st10{font-size:158.8857px;}
	.st11{letter-spacing:21;}
</style>
<g>
	<circle class="st0" cx="260.2" cy="263.4" r="248.6"/>
	<g>
		<g>
			<g>
				<path class="st1" d="M501.9,290.7c0.1-0.8,0.2-1.6,0.3-2.3c0.1-0.7,0.1-1.4,0.2-2c0.1-1.2,0.1-1.9,0.1-1.9
					c-0.1,0-0.1,0.1-0.2,0.1c-0.1,1.1-0.1,2.2-0.1,3.3C502.2,288.7,502,289.7,501.9,290.7z"/>
				<path class="st1" d="M503.5,297.1c0.1-0.7,0.2-1.3,0.3-2c-0.1,0.2-0.1,0.2-0.2,0.4C503.5,296,503.5,296.5,503.5,297.1z"/>
				<path class="st1" d="M502.3,284.4c-0.8,0.4-1.7,3-2.1-0.3c0.1-1.7,0.3-4.3,0.5-6.9c0.1-1.3,0.1-2.6,0.2-3.8
					c0-1.2,0.1-2.3,0.1-3.2c-0.3-3.5-0.8,0-1.2,0c0.1-3.5,0.2-6.9,0-6.9c-0.3-1.2-0.5-0.8-0.7,0.7c-0.2,1.5-0.4,4.1-0.5,7.4
					c0.6,3.7,0.5,8.9,0.6,13.9c0.1,2.5-0.1,5-0.2,7.3c-0.1,2.3-0.2,4.3-0.2,5.9c0,1.6-0.1,2.8,0,3.3c0.1,0.5,0.2,0.5,0.6-0.4
					c0.4-0.9,0.7-2.6,1.2-5.4c0.3-1.4,0.5-3,0.9-4.9c0.2-1,0.4-2,0.5-3.1C502.1,286.9,502.2,285.7,502.3,284.4z"/>
				<path class="st1" d="M500,312.4l1.6-9.1l0.4-2.3c0.1-0.8,0.2-1.5,0.3-2.3l0.6-4.6c-0.2-2-0.3-4.6-1-2.8
					c-0.2,2.4-0.4,4.5-0.6,6.5c-0.1,1-0.2,1.9-0.2,2.8c-0.1,0.9-0.2,1.8-0.3,2.6C500.4,306.6,500.2,309.5,500,312.4z"/>
				<path class="st1" d="M500.5,213c0.1,0,0.3,0.3,0.7,3.5C501,215.3,500.8,214.1,500.5,213c-0.1,0-0.2,0.2-0.7-1.3
					c2.8,12,5,26.3,5.7,40.3c0.3,1.8,0.5,3.6,0.8,5.2c-0.5-17.4-2.8-34.7-6.8-50.7c-3.9-16.1-9.5-30.9-15.8-43.6
					c0.5,1.1,1,2.3,1.5,3.4c0.2,0.5,0.5,1.1,0.7,1.6c0.2,0.5,0.4,1.1,0.7,1.6c0.9,2.2,1.7,4.3,2.5,6.3c0.4,1,0.8,2,1.2,3
					c0.4,1,0.7,2,1.1,3c0.7,2,1.4,4,2.1,6c0.3,1,0.7,2,1,3c0.3,1,0.6,2,0.9,3c0.6,2,1.2,4,1.8,6.1c0.7,2.1,1.1,4.2,1.6,6.4
					C499.5,208.4,500,210.7,500.5,213z"/>
				<path class="st1" d="M507.6,259.8c0,1.2,0.1,2.4,0.1,3.6C507.8,260.2,507.7,259.8,507.6,259.8z"/>
				<path class="st1" d="M61.5,123.3c-12.1,17.4-20,34.3-26.3,51.9c3.4-9.3,7.7-18.3,12.1-27.1c4.8-8.6,9.7-17.1,15.1-24.8
					c10.8-15.6,22.7-28.9,33.7-39.4C83.3,95.7,71.7,108.9,61.5,123.3z"/>
				<path class="st1" d="M21.2,265.9c0-0.8,0-1.6,0-2.4c0-0.8,0.1-1.6,0.1-2.4c0.1-1.6,0.1-3.1,0.2-4.7c0-1.5,0.1-3.1,0.1-4.6
					c0-1.5,0.2-3,0.3-4.5c0.2-3,0.4-5.9,0.6-8.7c0.3-2.8,0.7-5.6,1-8.4c0.2-1.4,0.3-2.7,0.5-4.1c0.2-1.3,0.4-2.7,0.6-4
					c0.4-2.7,0.8-5.3,1.3-7.9c0.5-2.6,1-5.1,1.5-7.6c0.3-1.3,0.5-2.5,0.8-3.8c0.3-1.2,0.6-2.5,0.9-3.7c-5.5,19.9-8,40.5-8.2,60.9
					c0,1,0,1.9,0.1,2.9C21,264,21.1,265,21.2,265.9z"/>
				<path class="st1" d="M21.4,237.2c0.4-2.9,0.7-5.8,1.1-8.7c0.1-1.4,0.4-2.8,0.6-4.2c0.2-1.4,0.5-2.8,0.7-4.1
					c0.8-5.5,2-10.7,3.1-15.8c0.2-1.3,0.6-2.5,0.9-3.8c0.3-1.3,0.6-2.5,1-3.7c0.7-2.5,1.2-5,2-7.4c0.7-2.4,1.5-4.8,2.2-7.2l0.5-1.8
					l0.6-1.8l1.3-3.5c-2.1,5.2-3.6,10.6-5.4,15.8c-0.8,2.6-1.4,5.3-2.1,7.9c-0.3,1.3-0.7,2.6-1,3.9c-0.3,1.3-0.6,2.6-0.8,3.9
					c-0.5,2.6-1.1,5.2-1.6,7.8c-0.4,2.6-0.8,5.2-1.2,7.7c-0.2,1.3-0.4,2.5-0.6,3.8c-0.2,1.3-0.3,2.5-0.4,3.8
					C21.8,232.3,21.6,234.8,21.4,237.2z"/>
				<path class="st1" d="M381.7,35.5c7.5,3.8,13.4,7,17.9,9.8c2.3,1.4,4.3,2.6,6,3.7c1.7,1.1,3.1,2.1,4.3,2.9
					c2.2,1.3,5.3,2.9,9.1,5.5c-0.8-0.6-1.6-1.3-2.4-1.9c-14.1-10.2-29.4-19.2-45.6-26.5c-3.4-1.4-6.7-2.7-9.8-4
					c-3.2-1.2-6.2-2.2-8.9-3.1c2.5,1,5,2,7.5,3c2.5,1,4.9,2.2,7.4,3.3C372.2,30.5,377,33.1,381.7,35.5z"/>
				<path class="st1" d="M410,52c-9.6-5.4-4.9-2.1-0.2,0.8C414.4,55.8,419.2,58.5,410,52z"/>
				<path class="st1" d="M308.6,21.3c-0.8-0.1-1.6-0.3-2.4-0.4c-2.3-0.4-4.7-0.8-7-1.1C302.3,20.3,305.4,20.8,308.6,21.3z"/>
				<path class="st1" d="M116.6,55.8c11.8-8.2,24.2-15.5,37-21.7c-26.4,12.5-50.6,30-67.5,47.4c1.3-1.2,2.7-2.5,4-3.7
					c1.3-1.2,2.8-2.3,4.1-3.5c1.3-1.3,2.8-2.7,4.4-4.2c0.4-0.4,0.8-0.8,1.2-1.2c0.4-0.4,0.9-0.7,1.3-1.1c0.9-0.8,1.8-1.5,2.8-2.3
					c1.9-1.6,3.9-3.3,6-4.9C112.2,59,114.4,57.4,116.6,55.8z"/>
				<path class="st1" d="M410,65c-1-0.8-2-1.4-3-2.1l-3-2.1c-2-1.4-4-2.8-6-4.1c-2.1-1.3-4.1-2.6-6.2-3.8l-3.1-1.9l-3.2-1.8
					c-2.1-1.2-4.2-2.3-6.3-3.5c-2.1-1.1-4.3-2.1-6.4-3.2l-3.2-1.6c-1.1-0.5-2.1-1.1-3.2-1.5c-2.2-0.9-4.4-1.9-6.5-2.8l-3.3-1.4
					l-3.3-1.3c-2.2-0.8-4.4-1.7-6.6-2.5c-1.1-0.4-2.2-0.8-3.3-1.1l-3.4-1.1c-2.2-0.7-4.5-1.4-6.7-2.1c-2.3-0.6-4.5-1.2-6.8-1.8
					c-2.3-0.6-4.5-1.2-6.8-1.7c-2.3-0.5-4.5-1-6.8-1.4c-1.1-0.2-2.3-0.5-3.4-0.7l-3.4-0.5c-36.7-6.8-74.2-5.1-108.3,4.1
					c-17,4.6-33.3,11.1-48.2,19c-15,7.9-28.7,17.2-41.1,27.4c-10.8,9-23,20.6-34.4,34.5c-0.7,0.9-1.5,1.7-2.2,2.6
					c-0.7,0.9-1.4,1.8-2.1,2.7c-1.4,1.8-2.8,3.6-4.2,5.5c-1.4,1.8-2.7,3.8-4,5.7c-0.7,1-1.3,1.9-2,2.9c-0.7,1-1.4,1.9-2,2.9
					c-1.3,2-2.5,4-3.8,6.1c-0.6,1-1.3,2-1.9,3l-1.8,3.1c-1.2,2.1-2.3,4.2-3.5,6.3c-1.1,2.1-2.2,4.3-3.2,6.5l-1.6,3.2
					c-0.3,0.5-0.5,1.1-0.8,1.6l-0.7,1.7c-1,2.2-1.9,4.4-2.9,6.6c-1,2.2-1.8,4.4-2.6,6.7c-0.8,2.2-1.7,4.5-2.5,6.7
					c-0.7,2.3-1.4,4.5-2.2,6.7c-0.7,2.2-1.5,4.4-2,6.7c-0.6,2.2-1.2,4.5-1.7,6.7c-0.3,1.1-0.6,2.2-0.8,3.3c-0.2,1.1-0.5,2.2-0.7,3.3
					c-3.8,17.5-5.1,34.1-4.8,48c0.1-3,0.4-5.9,0.6-8.7c0.1-1.4,0.2-2.8,0.3-4.2c0.1-1.4,0.2-2.8,0.4-4.1c0,0.5-0.1,1-0.1,1.5
					c0,0.5,0,1-0.1,1.5c0,1-0.1,2-0.1,3c-0.1,2-0.1,3.9-0.2,5.8c-0.1,1.9,0,3.8,0,5.6c0,1.8,0.1,3.7,0.1,5.4c0,1.4-0.1,2.8,0,4.3
					l0.1,4.3l0.1,4.3c0.1,1.4,0.1,2.8,0.2,4.3l0.7,8.5l0.2,2.1l0.3,2.1l0.6,4.2c0.6,5.6,1.8,11.2,2.8,16.7c0.6,2.8,1.3,5.5,1.9,8.3
					l1,4.1l1.2,4.1c6.1,21.8,15.4,42.5,27.4,61.7c24,38.3,59.1,70,101,89.8c3.1,1.4,6.1,2.7,8.9,3.9c2.9,1.1,5.7,2.1,8.6,3.2
					l2.1,0.8c0.7,0.3,1.4,0.5,2.2,0.7c1.4,0.5,2.9,0.9,4.4,1.4c1.5,0.5,3,1,4.5,1.5c1.6,0.5,3.2,0.9,4.8,1.4
					c6.6,2,13.4,3.5,20.1,4.9c3.4,0.6,6.7,1.2,10.1,1.8c3.4,0.4,6.8,0.8,10.1,1.3c0.1,0-0.1-0.1-0.5-0.2c14,1.5,28.1,1.7,42.1,0.7
					l5.2-0.4c1.7-0.1,3.5-0.3,5.2-0.5c3.5-0.5,7-0.9,10.4-1.4c3.4-0.6,6.9-1.3,10.4-1.9c3.4-0.7,6.8-1.6,10.3-2.4
					c27.2-7,53.5-19,77.1-35.8c22.3-15.6,42-35,57.9-57.1c1.5-2.1,2.6-3.6,3.6-4.8c0.9-1.2,1.6-2.2,2.3-3c1.3-1.7,2.5-3,4.4-5.8
					c7.5-11.4,13.2-22,18.3-33.4c5.1-11.4,9.4-23.6,12.9-38.7c0,0,0.4,0.1,0.6,0.1c0.2-1.2,0.5-2.3,0.7-3.4c0.2-1.1,0.4-2.2,0.6-3.2
					c0.4-2.1,0.7-4,1.1-5.7c-0.1,1.9-0.2,4.1-0.4,6.5c-0.1,1.2-0.2,2.4-0.4,3.7c-0.2,1.2-0.4,2.5-0.5,3.8c-0.4,2.5-0.7,5-1.1,7.2
					c-0.4,2.2-0.8,4.2-1.1,5.8c-0.6,3.2-0.7,4.7,0.2,2.9c0.8-1.7,2.8-6.6,5.3-16.5l0,0c-0.4,2.2-0.8,4.2-1.2,6.1
					c-0.1,0.2-0.1,0.4-0.2,0.7c0,0,0,0,0,0c-0.1,0.6-0.2,1.2-0.3,1.7c-0.1,0.6-0.3,1.1-0.4,1.6c-0.3,1.1-0.5,2.1-0.7,3
					c-0.5,1.9-0.9,3.7-1.2,5.4c-0.3,1.7-0.7,3.2-1.1,4.7c-0.4,1.5-0.7,2.9-1,4.3l1.5-4.4l0.7-2.2c0.2-0.7,0.4-1.5,0.6-2.2
					c0.8-3,1.7-6,2.5-9c-0.1,1.2,0,2,0.4,1.5c-0.1,0.5-0.2,1-0.3,1.6c-0.8,2.7-1.4,4.9-1.4,4.9c-0.1,0.9-0.1,1.6-0.1,2.1
					c-0.2,1-0.5,2-0.8,3.1c-0.3,1-0.6,2.1-0.9,3.2c-0.6,2.2-1.3,4.4-2,6.6c-1.6,4.4-3,8.8-4.4,12.5c-3,7.3-4.9,12.2-3.5,10.1
					c1-1.7,2.6-5.3,4.7-10.1c1-2.4,2-5.2,3.1-8.1c0.5-1.5,1.1-3,1.6-4.5c0.5-1.6,1-3.2,1.5-4.8c0.3-0.8,0.7-1.6,1.1-2.5
					c-2.8,8.5-2.5,8.7-1.9,7.9c0.3-0.4,0.7-1,0.8-0.8c0.1,0.2,0,1.1-1,3.6c-1.3,3.4-2.6,6.8-4,10.1l-4.4,9.9
					c-1.6,3.2-3.2,6.5-4.9,9.7c-0.8,1.6-1.7,3.2-2.6,4.8l-2.7,4.7c-7.5,12.7-15.8,24.2-24.7,34.8c-1.1,1.3-2.3,2.6-3.4,3.9
					c-1.1,1.3-2.2,2.6-3.4,3.8c-2.4,2.5-4.7,5-7.1,7.4c-2.5,2.4-4.9,4.7-7.3,7.1c-1.2,1.2-2.5,2.3-3.8,3.4l-3.8,3.3
					c-10.3,8.8-21.2,16.8-32.9,24c-11.7,7.2-24.2,13.5-37.7,19c-1.2,0.5-2.4,1-3.6,1.4c-1.2,0.5-2.4,1-3.6,1.4
					c-3.3,1.2-6.6,2.3-9.9,3.4c-3.3,1-6.7,1.9-10,2.9c-0.8,0.2-1.7,0.5-2.5,0.7l-2.5,0.6c-1.7,0.4-3.3,0.8-5,1.2
					c-1.7,0.4-3.3,0.8-5,1.1l-5,0.9c-6.7,1.3-13.4,2.1-20.2,2.9c-3.4,0.2-6.8,0.5-10.2,0.7c-1.7,0.2-3.4,0.2-5.1,0.2
					c-1.7,0-3.4,0.1-5.2,0.1c1.8-0.2,3.6-0.3,5.5-0.5c-22.1,0.6-44.4-1.2-66.1-6c-13.3-2.8-26.5-6.7-39.2-11.7
					c-12.7-5-25.1-11.1-37.1-18.2c-2.9-1.8-5.9-3.7-8.9-5.5c-2.9-2-5.7-4-8.6-6c-1.5-1-2.8-2.1-4.2-3.1c-1.4-1.1-2.8-2.2-4.2-3.2
					c-2.8-2.1-5.5-4.5-8.2-6.8c-10.8-9.3-20.9-19.5-30.2-30.8c-9.7-11.8-18.3-24.4-25.6-37.7c-7.4-13.2-13.5-27.1-18.4-41.4
					c-9.8-28.6-14.8-59.1-13.8-90.3c-0.5,25.5,2.7,51,9.7,76.2c0.8,2.8,1.6,5.6,2.4,8.4c0.9,2.8,1.9,5.5,2.8,8.3
					c0.5,1.4,0.9,2.8,1.4,4.1c0.5,1.3,1.1,2.7,1.6,4c1.1,2.7,2.1,5.3,3.2,7.9c-1.1-2.7-2.2-5.5-3.2-8.2c-0.5-1.4-1.1-2.7-1.6-4.1
					c-0.5-1.4-0.9-2.7-1.4-4.1c-0.9-2.7-1.8-5.5-2.8-8.2c-0.8-2.8-1.6-5.5-2.4-8.3c-0.4-1.4-0.8-2.7-1.1-4.1l-0.9-4.1
					c-0.6-2.8-1.3-5.5-1.9-8.3c-0.5-2.8-1-5.6-1.5-8.3c-0.2-1.4-0.5-2.8-0.7-4.2c-0.2-1.4-0.4-2.8-0.5-4.2c-0.3-2.8-0.7-5.6-1-8.3
					c-0.2-2.8-0.4-5.5-0.6-8.3c-0.1-1.4-0.2-2.8-0.3-4.1c0-1.4-0.1-2.7-0.1-4.1c-0.1-2.7-0.2-5.4-0.3-8.1c-0.2-21.6,2.2-41.8,5.3-59
					c0.5-1.8,0.8-2.7,1.1-3.6c0.3-0.9,0.5-1.8,1-3.5c0.9-3.1,1.8-6.2,2.6-9.3c0.9-3.1,2-6.1,3-9.1c0.5-1.5,1-3,1.6-4.5
					c0.6-1.5,1.2-2.9,1.7-4.4c0.6-1.5,1.2-2.9,1.7-4.4l0.9-2.2l1-2.1c1.3-2.8,2.5-5.6,3.7-8.4c1.3-2.8,2.7-5.4,4-8.1
					c0.7-1.3,1.3-2.6,2-4c0.7-1.3,1.4-2.5,2.1-3.8c1.4-2.5,2.7-5,4-7.4c-0.2-0.1,5.8-9.4,3.5-6.5c0.7-1.2,1.5-2.4,2.2-3.6
					c0.8-1.2,1.6-2.3,2.4-3.5c1.7-2.3,3.3-4.8,5-7.1c3.6-4.6,7.2-9.5,11.2-14c3.8-4.6,8-8.9,12-13.2c2.1-2.1,4.2-4.1,6.2-6.1
					c1-1,2-2,3.1-3c1.1-0.9,2.1-1.9,3.1-2.8l5.4-4.8c1.8-1.6,3.7-3.1,5.5-4.7c1.9-1.5,3.6-3.2,5.5-4.6l5.7-4.5l3-2.2l3.1-2.1
					l6.2-4.1c1-0.7,2.1-1.3,3.2-2l3.2-1.9c2.2-1.3,4.3-2.6,6.5-3.8l6.6-3.5l3.3-1.7l3.4-1.6l6.8-3.2c1.1-0.6,2.3-1,3.4-1.5l3.5-1.4
					c2.3-0.9,4.6-1.9,7-2.8l7.1-2.5l3.6-1.3c1.2-0.4,2.4-0.7,3.6-1.1c2.4-0.7,4.8-1.4,7.2-2.2l1.8-0.5l1.8-0.5l3.7-0.9
					c2.5-0.6,4.9-1.2,7.4-1.8c2.5-0.5,5-1,7.5-1.4c2.5-0.5,5-1,7.5-1.3c20.1-3.1,40.8-3.9,61.6-2.2l2,0.1l2,0.2l3.9,0.4
					c2.6,0.3,5.2,0.6,7.8,0.9c2.6,0.4,5.2,0.9,7.8,1.3l3.9,0.7c1.3,0.2,2.6,0.6,3.9,0.8c2.6,0.6,5.2,1.1,7.8,1.7
					c1.3,0.3,2.6,0.6,3.9,1l3.9,1.1l3.9,1.1l2,0.5l1.9,0.6c2.6,0.8,5.2,1.7,7.7,2.5c2.6,0.8,5.1,1.8,7.7,2.8c2.6,1,5.3,2,7.9,3.1
					c5.2,2.4,10.6,4.6,15.7,7.4l3.9,2l1.9,1l1.9,1.1c2.5,1.4,5,2.9,7.5,4.3c0.6,0.4,1.3,0.7,1.9,1.1l1.8,1.2
					c1.2,0.8,2.4,1.5,3.6,2.3c2.4,1.5,4.8,3,7,4.6c-26.9-17.7-57.8-31-90.6-37.9c-15.8-3.6-31.7-5.6-46.7-6.2
					c-15-0.6-29.2,0.6-41.8,2.5c-2.9,0.5-5.9,0.9-8.8,1.4c-2.9,0.6-5.8,1.2-8.7,1.8c35.2-7.1,71.6-6.9,106,0.4
					c18.7,4.3,37.3,10.9,54.7,19.2c-0.4-0.1-0.7-0.3-1.1-0.4c-13.7-6.3-28.2-11.3-43-15.1c-13.9-3.8-27.8-6.4-41.2-7.7
					c-6.7-0.5-13.3-1.1-19.7-1c-1.6,0-3.2,0-4.7,0c-0.8,0-1.6,0-2.3,0c-0.8,0-1.5,0.1-2.3,0.1c-3.1,0.2-6.1,0.3-9,0.5
					c-0.7,0-1.5,0.1-2.2,0.1c-0.7,0.1-1.5,0.2-2.2,0.2c-1.4,0.2-2.9,0.3-4.3,0.5l-4.4,0.5c-0.7,0.1-1.5,0.1-2.2,0.2l-2.2,0.3
					c-2.9,0.5-5.8,0.9-8.7,1.4c5.5-0.7,10.9-1.7,16.4-2c2.7-0.2,5.5-0.5,8.2-0.7c2.7-0.1,5.5-0.2,8.2-0.3l4.1-0.2c1.4,0,2.7,0,4.1,0
					c2.7,0,5.5,0.1,8.2,0.1c1.4,0,2.7,0.1,4.1,0.2l4.1,0.3l4.1,0.3c1.4,0.1,2.7,0.2,4.1,0.3c3.4,0.4,6.7,0.8,10.1,1.1
					c3.4,0.4,6.7,1.1,10,1.6c1.7,0.3,3.3,0.5,5,0.9l4.9,1.1c3.3,0.7,6.6,1.4,9.8,2.3c2,0.6,4.1,1.2,6.1,1.8c1,0.3,2,0.6,3.1,0.9l3,1
					c2,0.7,4,1.4,6.1,2.1c1,0.4,2,0.7,3,1.1l3,1.2c-0.9-0.3-1.8-0.6-2.5-0.8c-1.8-0.6-4.4-1.3-7.2-2c-1.4-0.3-2.8-0.7-4.2-1
					c-0.7-0.1-1.3-0.3-2-0.4c-0.7-0.1-1.3-0.2-1.9-0.3c-4.7-0.6-7.2-0.6-2,1.2c13.6,4,28.2,9.6,42,16.4
					c13.8,6.8,26.9,14.9,37.7,22.8c2.7,2,5.3,4,7.7,5.9c2.5,1.9,4.8,3.8,6.9,5.7c2.1,1.9,4.2,3.5,6,5.2c1.8,1.7,3.5,3.3,5,4.7
					c3.1,2.8,5.3,5.3,6.9,6.9c0.8,0.8,1.4,1.5,1.8,1.9c0.2,0.2,0.4,0.4,0.5,0.5c0.1,0.1,0.2,0.2,0.1,0.2c0.2,0.4-0.6-0.3-2.3-1.9
					c-1.7-1.6-4.1-4.1-7.3-6.9c-1.6-1.4-3.3-3-5.1-4.7c-0.9-0.9-1.9-1.7-2.9-2.5c-1-0.8-2-1.7-3.1-2.6c-4.1-3.6-8.8-7-13.4-10.5
					c-2.3-1.7-4.8-3.3-7.1-5c-1.2-0.8-2.3-1.6-3.5-2.4c-1.2-0.8-2.4-1.5-3.5-2.2c-2.3-1.4-4.5-2.8-6.6-4.1c-2.1-1.3-4.2-2.3-6-3.4
					c-1.9-1-3.5-2-5-2.8c-1.5-0.8-2.8-1.4-3.8-1.9c-2.1-1-3.1-1.5-2.7-1.2l3.6,1.9c1.2,0.6,2.4,1.2,3.6,2c2.3,1.4,4.7,2.8,7,4.1
					c-2.3-1.2-4.5-2.4-6.7-3.6c-0.5-0.3-1.1-0.6-1.6-0.9c-0.6-0.3-1.1-0.5-1.6-0.8c-1.1-0.5-2.2-1-3.2-1.5c-1.2-0.6-2.5-1.2-3.8-1.9
					c-1.3-0.7-2.6-1.3-4-1.9c-2.8-1.2-5.6-2.5-8.3-3.7c-1.3-0.6-2.7-1.1-4-1.6c-1.3-0.5-2.6-1-3.8-1.4c-1.2-0.4-2.3-0.9-3.4-1.3
					c-1-0.4-2-0.7-2.9-0.9c-12.2-3.8-25.4-7.2-39.2-9.7c-1.7-0.3-3.5-0.6-5.2-0.9l-2.6-0.4c-0.9-0.1-1.8-0.2-2.6-0.3
					c-3.5-0.4-7.1-0.8-10.7-1.2c-3.6-0.2-7.2-0.4-10.8-0.7c-1.8-0.1-3.6-0.1-5.4-0.1l-5.4,0c-1.1,0-2.3,0-3.4,0
					c-1.2,0.1-2.3,0.1-3.5,0.2c-2.4,0.1-4.8,0.3-7.2,0.4c-2.5,0.1-4.9,0.4-7.5,0.7c-2.5,0.3-5.1,0.6-7.6,0.9
					c-10.2,1.6-20.9,3.5-31.3,6.5c0,0.2-2.6,0.8-4.7,1.4c-2.2,0.6-3.9,1.2-2.1,0.9c-4.8,1.4-9.9,2.7-14.8,4.5
					c-2.4,0.8-4.9,1.7-7.2,2.5c-2.3,0.9-4.6,1.9-6.8,2.8c-4.4,1.7-8.3,3.7-11.6,5.4c-3.3,1.6-6,3.3-7.8,4.5
					c-0.4,0.2-0.9,0.5-1.3,0.7c-1.3,0.7-3,1.6-4.9,2.7c-14.7,7.9-26.3,16.3-36.8,25.2c-10.5,9-19.9,18.5-29.6,30c-1.7,2-3.4,4-5,5.9
					c-1.6,2.1-3.2,4.1-4.8,6.2c-0.8,1-1.6,2.1-2.4,3.1c-0.8,1.1-1.5,2.2-2.3,3.3c-1.5,2.2-3.1,4.4-4.6,6.6c2-2.9,4.6-6.5,7.2-10.1
					c2.8-3.5,5.5-7,7.6-9.8c1.5-1.8,3-3.6,4.4-5.4c8.8-10.2,18.1-19.4,27.9-27.9c9.9-8.4,20.3-15.9,31.2-22.7c1.8-1.1,4.6-3,7.3-4.7
					c1.6-0.9,3.3-1.7,5-2.5c0.4-0.3,0.8-0.6,1.2-0.9c10.8-5.8,22.9-11.2,34.9-15.2c3-1.1,6-2,9-2.9c3-0.9,5.9-1.8,8.8-2.5
					c2.9-0.7,5.7-1.4,8.5-2.1c2.8-0.6,5.5-1.1,8-1.7c4.9-1.1,9.8-1.6,14.8-2.3c2.5-0.4,5-0.5,7.6-0.8c2.5-0.2,5.1-0.4,7.6-0.6
					c2.6-0.1,5.1-0.2,7.7-0.2c2.6-0.1,5.1-0.2,7.7-0.1c5.1,0.1,10.3,0.1,15.5,0.6c2.6,0.2,5.2,0.4,7.7,0.6l7.7,1l3.8,0.5
					c1.3,0.2,2.5,0.4,3.8,0.7c2.5,0.5,5.1,0.9,7.6,1.4c1.3,0.2,2.5,0.5,3.8,0.8l3.8,0.9l3.8,0.9c1.3,0.3,2.5,0.6,3.7,1
					c4.9,1.5,9.9,2.7,14.6,4.4c-4.8-1.7-9.7-2.8-14.5-4.1l-1.8-0.5l-1.8-0.4l-3.7-0.8c-2.4-0.5-4.9-1.1-7.3-1.5
					c-9.8-1.7-19.5-3-29.3-3.5c1.5,0.1,3,0.2,4.5,0.3c1.5,0.1,3,0.3,4.5,0.5c3,0.3,6,0.7,8.9,1c2.9,0.5,5.8,1,8.7,1.4
					c1.4,0.3,2.9,0.4,4.3,0.8c1.4,0.3,2.8,0.6,4.3,0.9c1.4,0.3,2.8,0.6,4.2,0.9c1.4,0.3,2.8,0.6,4.2,1c2.8,0.7,5.5,1.5,8.3,2.2
					c0.7,0.2,1.4,0.4,2.1,0.6l2,0.7c1.3,0.4,2.7,0.9,4,1.3c2.7,0.9,5.4,1.7,8,2.7c3.2,1.3,6.4,2.5,9.6,3.8l9.8,4.4l9.6,4.9
					c-3-1.6-5.9-3.1-8.9-4.7c-3-1.4-6-2.8-9-4.2c12.4,5,24.2,11.3,35.3,18.1c15.3,9.5,29.7,20.8,42.8,33.7
					c13,12.9,24.7,27.3,34.6,42.8c10,15.5,18.3,32.2,24.4,49.6c6.2,17.4,10.4,35.5,12.5,53.7c-0.4-1.4-0.9-3-1.3-4.8
					c-2.5-17.5-6.9-34.6-12.8-50.4c-5.9-15.8-13.3-30.1-21.1-42.1c1.3,2.2,2.5,4.3,3.7,6.3c0.6,1,1.2,2,1.7,3c0.5,1,1.1,2,1.6,3
					c2.1,4,4.1,7.7,5.8,11.6c0.9,1.9,1.8,3.8,2.7,5.8c0.9,1.9,1.6,4,2.5,6c0.8,2,1.7,4.1,2.5,6.2c0.7,2.2,1.5,4.4,2.3,6.7
					c-0.1,0-0.2,0.2-0.8-1.3c4.3,11.7,8.3,25.9,10.5,39.9c-1.3-4.4-2.6-9.3-4.3-14.1c-0.5-1.7-1-3.7-1.6-5.8
					c-0.1-0.5-0.3-1.1-0.4-1.6c-0.2-0.5-0.3-1.1-0.5-1.6c-0.3-1.1-0.7-2.3-1-3.4c-0.7-2.3-1.4-4.8-2.2-7.3c-0.9-2.5-1.8-5-2.7-7.5
					c-0.5-1.4-0.9-2.7-1.5-4.1c-0.5-1.3-1.1-2.7-1.6-4c-0.5-1.3-1.1-2.7-1.6-4c-0.5-1.3-1.1-2.7-1.7-3.9c-1.2-2.6-2.4-5.2-3.6-7.8
					c-0.6-1.3-1.2-2.6-1.9-3.8l-1.9-3.8l-1.9-3.8c-0.6-1.3-1.4-2.5-2.1-3.7c-1.4-2.4-2.8-4.9-4.2-7.3c-1.5-2.4-3-4.7-4.5-7.1
					c-0.8-1.2-1.5-2.4-2.3-3.5l-2.4-3.4c-6.4-9.2-13.6-17.7-21.2-26c-1.9-2-3.9-4-5.8-6.1c-2-2-4.1-3.9-6.1-5.8l-3.1-2.9L423,78
					c-2.2-1.8-4.3-3.7-6.5-5.5l-6-4.7c-1-0.8-2-1.6-3-2.3l-3.1-2.2l-6.2-4.4l-6.4-4.1l-3.2-2c-1.1-0.7-2.2-1.3-3.3-1.9l-6.6-3.8
					c-1.1-0.7-2.2-1.2-3.3-1.8l-3.4-1.7l-3.4-1.7l-1.7-0.9l-1.7-0.8c-4.6-2.1-9.1-4.3-13.8-6c-2.3-0.9-4.7-1.9-7-2.7
					c-2.4-0.8-4.7-1.6-7.1-2.4l-3.6-1.2c-1.2-0.4-2.4-0.7-3.6-1c-2.4-0.7-4.8-1.4-7.2-2c-1.2-0.4-2.4-0.6-3.6-0.9l-3.6-0.8l-3.6-0.8
					c-1.2-0.3-2.4-0.6-3.6-0.8c1.2,0.2,2.4,0.5,3.6,0.7c1.2,0.3,2.4,0.5,3.6,0.8c2.4,0.5,4.8,1,7.1,1.6c2.3,0.6,4.7,1.3,7,1.9
					c1.2,0.3,2.3,0.6,3.5,0.9c1.1,0.3,2.3,0.7,3.4,1.1c2.3,0.7,4.5,1.5,6.8,2.2l1.7,0.5l1.7,0.6c1.1,0.4,2.2,0.8,3.3,1.2
					c2.2,0.8,4.4,1.7,6.5,2.5c2.1,0.9,4.3,1.8,6.4,2.8c8.5,3.6,16.6,7.9,24.4,12.3c1,0.5,2,1.1,2.9,1.7l2.9,1.8
					c1.9,1.2,3.8,2.4,5.7,3.5c1.8,1.3,3.7,2.5,5.5,3.8l2.8,1.9C408.2,63.7,409.1,64.3,410,65z M471,385.1c-0.9,1.6-1.7,3.2-2.6,4.8
					c-1,1.6-1.9,3.2-2.9,4.8c0.4-0.5,0.7-0.9,1-1.3c0.9-1.4,1.8-2.9,2.6-4.3C469.8,387.6,470.5,386.3,471,385.1z M418.8,447.8
					c9.2-7.7,19.3-17.5,28.6-29c9.4-11.4,18.1-24.4,25.3-37.9c0-0.2,0-0.3,0-0.3c-1.6,2.8-3.3,5.6-5,8.5c-1.8,2.8-3.7,5.7-5.6,8.7
					c-0.9,1.5-2,2.9-3,4.4c-1,1.5-2.1,2.9-3.1,4.4c-0.5,0.7-1,1.5-1.6,2.2c-0.6,0.7-1.1,1.4-1.7,2.2c-1.1,1.4-2.2,2.9-3.4,4.4
					C440.3,427,429.8,438.1,418.8,447.8z M334.3,490.9c0.2,0,0.4-0.1,0.6-0.1c0,0-0.1,0-0.1-0.1
					C334.6,490.7,334.4,490.8,334.3,490.9z M16.8,295.1c2.3,14,5.8,29.5,11.3,45.3c5.4,15.8,12.8,31.9,21.9,47
					c5.5,9,11.8,17.5,20.6,28.4c5.6,6.8,10.4,11.9,15.1,16.5c1.2,1.1,2.3,2.3,3.5,3.4c1.2,1.1,2.4,2.2,3.6,3.3
					c1.2,1.1,2.4,2.2,3.6,3.3c1.2,1.1,2.6,2.2,3.9,3.3c-1.3-1.2-2.6-2.3-3.8-3.6l-3.7-3.8c1.1,1.1,2.2,2.1,3.2,3.1
					c0.5,0.5,1,1,1.6,1.5c0.5,0.5,1.1,0.9,1.6,1.4c2.1,1.8,4.1,3.5,6.1,5.2c1,0.8,2,1.6,3,2.3c1,0.7,2,1.5,3,2.2
					c1,0.7,1.9,1.5,2.9,2.2l1.4,1.1l1.5,1c4,2.7,7.9,5.5,12.3,8.1c2.2,1.3,4.4,2.8,6.7,4.2c2.4,1.4,4.9,2.8,7.5,4.4
					c0.1-0.1,0.9,0.2,2.1,0.7c1.2,0.5,2.8,1.2,4.4,2c1.9,1,3.9,2,5.8,2.9c2,0.9,3.9,1.8,5.9,2.7c2,0.9,3.9,1.8,5.8,2.6
					c2,0.8,3.9,1.6,5.8,2.3c3.8,1.6,7.6,2.8,11.3,4c0.9,0.3,1.8,0.6,2.7,0.9c0.4,0.1,0.9,0.3,1.3,0.4c0.4,0.1,0.9,0.2,1.3,0.4
					c1.8,0.5,3.5,0.9,5.2,1.4l3.1,0.9c1,0.3,2.1,0.6,3.1,0.8c2.1,0.5,4.2,0.9,6.3,1.4c4.2,1,8.3,1.6,12.4,2.3c1,0.2,2,0.3,3,0.5
					c1,0.2,2,0.2,3,0.4c2,0.2,3.9,0.4,5.8,0.7c3.8,0.5,7.5,0.6,11,0.8c0.9,0.1,1.9,0.1,3.2,0.1c0.6,0,1.3,0,2,0c0.7,0,1.4,0,2.2-0.1
					c3-0.1,6.5-0.2,9.9-0.2c4.2-0.1,8.4-0.3,12.6-0.4c4.2-0.4,8.4-0.7,12.6-1.1c-0.4,0-0.7,0-1,0c-3.4,0.3-6.9,0.5-10.3,0.8
					c-1.7,0.2-3.5,0.2-5.2,0.3l-5.2,0.2c-1.3,0-2.6,0.1-3.9,0.2c-1.3,0-2.7,0-4,0c-2.7,0-5.4,0-8.2-0.1c-2.7-0.2-5.5-0.3-8.3-0.5
					c-1.4-0.1-2.8-0.1-4.2-0.3l-4.2-0.5c-11.2-1-22.2-3.3-32.3-5.7c-3.1-0.9-6.2-1.7-9.4-2.6c-3.1-1-6.1-2-9.2-3l-2.3-0.7
					c-0.8-0.3-1.5-0.6-2.2-0.8c-1.5-0.6-3-1.1-4.5-1.7c-1.5-0.6-3-1.1-4.4-1.7c-1.4-0.6-2.9-1.3-4.3-1.9c-1.4-0.6-2.9-1.3-4.3-1.9
					l-2.2-0.9l-2.1-1c-2.8-1.4-5.6-2.8-8.4-4.2c-2.7-1.5-5.4-3-8.2-4.6l-2-1.1l-2-1.2l-3.9-2.5l-3.9-2.5l-3.8-2.6l-3.8-2.6l-1.9-1.3
					l-1.8-1.4c-2.4-1.9-4.9-3.7-7.3-5.6c-2.3-2-4.7-3.9-7-5.9c-9.2-8-17.9-16.7-25.9-25.9c-1.7-2-3.3-4-5-6l-2.5-3
					c-0.8-1-1.6-2.1-2.4-3.1l-4.7-6.3c-1.5-2.2-2.9-4.3-4.4-6.5c-8.8-13.1-16.8-28.8-22.7-43.9c-0.8-1.9-1.4-3.8-2.1-5.6
					c-0.7-1.9-1.3-3.7-2-5.5c-0.7-1.8-1.2-3.6-1.7-5.4c-0.5-1.8-1.1-3.5-1.6-5.2c-0.3-0.8-0.5-1.7-0.8-2.5c-0.2-0.8-0.4-1.7-0.7-2.5
					c-0.4-1.6-0.9-3.2-1.3-4.7c-0.4-1.5-0.8-3-1.2-4.4c-0.3-1.4-0.7-2.8-1-4.1c-0.4-1.7-0.9-4.3-1.5-6.9c-0.3-1.3-0.5-2.6-0.7-3.8
					C17.2,297,17,296,16.8,295.1z M6.4,255.4c-0.2,19.3,1.7,39.6,5.9,59.2c4.3,19.6,10.7,38.3,18.2,54.8c3,6.7,8,16.1,14.2,26.1
					c6.2,9.9,14,20.1,21.4,28.7c1.9,2.1,3.8,4.1,5.6,6.1c0.9,1,1.7,1.9,2.6,2.8c0.9,0.9,1.8,1.7,2.6,2.5c1.7,1.6,3.3,3.1,4.7,4.5
					c0.7,0.7,1.4,1.3,2.1,1.9c0.7,0.6,1.3,1.1,1.9,1.6c4.8,4,6.9,5.3,4.7,2.4c-7.3-5.2-21.6-18.5-35.5-37.8
					c-0.9-1.2-1.8-2.4-2.6-3.6c-0.9-1.2-1.7-2.5-2.5-3.8c-1.7-2.6-3.5-5.2-5.1-7.9c-1.6-2.8-3.2-5.5-4.9-8.4c-1.6-2.8-3-5.8-4.6-8.7
					c-5.9-11.9-11.1-24.4-15-36.9c-3.8-12.5-6.6-24.8-8.5-36c-0.5-2.8-0.8-5.5-1.1-8.2c-0.3-2.6-0.8-5.2-0.9-7.7
					c-0.2-2.5-0.4-4.8-0.6-7.1c-0.1-1.1-0.2-2.2-0.3-3.3c0-1.1-0.1-2.1-0.1-3.1c-0.2-4-0.4-7.6-0.5-10.5c0-2.9-0.1-5.3-0.2-6.9
					C7.4,252.7,7,252.2,6.4,255.4z M175,20.3c-14.6,5.5-28.2,11.9-43.5,20.7C145.3,32.7,159.8,25.8,175,20.3z M57,118.4
					c0.8-1.2,1.6-2.4,2.4-3.7c0.8-1.2,1.7-2.4,2.6-3.6c1.8-2.4,3.5-4.8,5.3-7.1c3.8-4.6,7.5-9.3,11.7-13.6c2-2.2,4.1-4.5,6.3-6.6
					c2.2-2.1,4.3-4.3,6.5-6.4c2.3-2,4.5-4.1,6.8-6.1l1.7-1.5c0.6-0.5,1.2-1,1.8-1.4l3.6-2.9l3.6-2.9c1.2-1,2.5-1.8,3.7-2.7
					c2.5-1.8,4.9-3.6,7.4-5.4c2.5-1.7,5.1-3.4,7.6-5l1.9-1.2l2-1.2l3.9-2.3l3.9-2.3c1.3-0.8,2.7-1.4,4-2.1c2.7-1.4,5.3-2.8,8-4.2
					c5.4-2.5,10.8-5.2,16.3-7.3c16.8-6.9,35.4-11.9,53.8-14.8c18.4-2.8,36.6-3.5,53-3.3l0-0.6c-1.2,0-2.4,0-3.6,0
					c-3.2-0.1-6.3-0.2-9.2-0.4c-1.5-0.1-2.9-0.1-4.3-0.1c-1.4,0-2.8,0-4.2,0c-1.4,0-2.8,0-4.1,0c-0.7,0-1.4,0-2,0
					c-0.7,0-1.3,0.1-2,0.1c-2.7,0.2-5.3,0.3-8,0.5c0.6-0.1,1.3-0.1,1.9-0.2c-1.1,0.1-2.1,0.2-3.2,0.3c-7.2,0.7-14.6,1.5-23,3.3
					c-3.9,0.7-7.7,1.8-11.6,2.8l-4.2,1c-1.4,0.4-2.8,0.8-4.1,1.2c-2.7,0.8-5.5,1.6-8.3,2.4l-8.1,2.8c-1.4,0.5-2.7,0.9-4.1,1.4
					l-4,1.6c-10.7,4.1-21,9.3-30.8,14.8c-2.4,1.4-4.9,2.9-7.3,4.3c-1.2,0.7-2.4,1.5-3.5,2.3c-1.2,0.8-2.3,1.5-3.5,2.3
					c-4.7,3-9.1,6.4-13.5,9.6c-8.5,6.8-16.7,13.7-23.8,21.1c-1.1,1.1-2.2,2.2-3.3,3.3c-1.1,1.1-2.1,2.3-3.1,3.4
					c-2,2.3-4.1,4.5-6.1,6.8c-1.9,2.3-3.8,4.6-5.6,6.9l-1.4,1.7l-1.3,1.8l-2.6,3.6l-2.6,3.6c-0.9,1.2-1.6,2.4-2.5,3.7
					c-1.6,2.5-3.3,4.9-4.9,7.4c-3.1,5.1-6.3,10.3-9.2,15.9c0.9-1.6,1.9-3.3,3-5.1c1.1-1.8,2.4-3.7,3.6-5.6c1.2-1.9,2.4-3.8,3.6-5.6
					C54.9,121.6,56,119.9,57,118.4z"/>
				<path class="st1" d="M352.8,32.1c14.5,5.5,28.6,12.5,42,20.9c5.3,3.1,10.2,6.6,15.2,10c4.8,3.7,9.8,7.2,14.4,11.2
					c11.1,9.3,21.8,20.1,31.6,32.1c9.8,12,18.7,25.3,26.3,39.4c7.6,14.1,13.8,29.1,18.5,44.5c4.7,15.4,8,31.1,9.7,46.6
					c0.4,0.9,0.7,1.4,1,1.3c0.3,0,0.6-0.6,0.7-1.7c-3.2-34.1-14-67.4-30.9-97.1c-16.9-29.8-39.8-55.9-66.8-76.9
					c-0.4-0.3-0.9-0.6-1.3-0.9c-12-8.4-28.1-18.7-46.4-26.9c-18.2-8.3-38.3-14.6-56.1-17.7c-17.9-3-36-4.3-54-3.6
					c-18,0.6-35.9,3.2-53.3,7.7c1.6-0.4,3.2-0.7,4.7-1.1c0.8-0.2,1.6-0.4,2.4-0.5l2.4-0.4c3.2-0.6,6.3-1.1,9.5-1.7
					c6.4-0.8,12.7-1.8,19-2.1c6.3-0.6,12.7-0.6,19-0.8c6.3,0.2,12.6,0.1,18.9,0.7c6.3,0.3,12.5,1.3,18.8,2
					c6.2,1.1,12.4,2.1,18.6,3.6c3.1,0.7,6.2,1.4,9.2,2.3c3,0.9,6.1,1.7,9.1,2.7c3,1,6,2.1,9,3.1c0.8,0.3,1.5,0.5,2.3,0.8l2.2,0.9
					L352.8,32.1z"/>
				<path class="st1" d="M29.1,199.2c3.5-13.1,8-26,13.9-38.4l0.7-1.6l0.8-1.6c0.5-1.1,1.1-2.1,1.6-3.2c1.1-2.1,2.1-4.2,3.2-6.3
					c1.1-2,2.3-4.1,3.4-6.1c0.6-1,1.1-2,1.7-3c0.6-1,1.2-1.9,1.8-2.9c1.2-1.9,2.4-3.9,3.6-5.8l0.9-1.4l1-1.4
					c0.6-0.9,1.3-1.8,1.9-2.8c1.3-1.8,2.5-3.7,3.8-5.5c1.3-1.8,2.7-3.5,4-5.3l2-2.6l1-1.3l1.1-1.3c1.4-1.7,2.8-3.4,4.2-5l2.1-2.5
					l2.2-2.4c1.5-1.6,2.9-3.2,4.4-4.8c1.4-1.6,3.1-3.1,4.6-4.6l4.6-4.6c1.6-1.5,3.2-2.9,4.8-4.4c1.6-1.4,3.2-3,4.9-4.3
					c-19.7,16.4-37.2,35.8-51,57.8c-0.9,1.4-1.7,2.7-2.6,4.1c-0.8,1.4-1.6,2.8-2.3,4.1c-0.8,1.4-1.5,2.7-2.3,4.1
					c-0.4,0.7-0.7,1.3-1.1,2c-0.4,0.7-0.7,1.4-1,2.1c-1.3,2.7-2.6,5.4-3.9,8.1c-1.2,2.7-2.3,5.4-3.4,8.1
					C35.3,177.2,31.7,187.9,29.1,199.2z"/>
				<path class="st1" d="M129.8,58.9c-2,1.4-4,2.6-5.9,4c-1.9,1.4-3.8,2.8-5.7,4.2l-2.8,2.1l-2.7,2.2c-1.8,1.5-3.6,3-5.4,4.5
					c14.7-12,30.7-22.4,47.7-30.8c17-8.3,34.9-14.6,53.3-18.8c30.2-7,61.9-8.1,92.7-3.4c30.8,4.7,60.8,15.5,87.7,31.5
					c3,1.9,6.1,3.7,9,5.6c2.9,2,5.8,4,8.7,6c-23.4-17.5-50-30.6-77.7-38.7c-13.9-4-28-6.9-42.2-8.3c-14.2-1.4-28.4-1.6-42.4-0.7
					c-1.7,0.1-3.5,0.3-5.2,0.4c-1.7,0.2-3.5,0.2-5.2,0.5c-3.5,0.5-6.9,0.9-10.3,1.4c-3.4,0.6-6.8,1.3-10.2,1.9
					c-0.8,0.2-1.7,0.3-2.5,0.5l-2.5,0.6c-1.7,0.4-3.3,0.8-5,1.2c-13.3,3.3-26.1,7.7-38.3,13c-12.2,5.4-23.7,11.7-34.4,18.7
					c-1.3,0.9-2.7,1.8-4,2.7c-1.3,0.9-2.7,1.8-3.9,2.7c-2.6,1.9-5.1,3.8-7.6,5.7c-4.9,4-9.7,7.9-14.2,12.1c-1.3,1.2-2.8,2.5-4.2,3.9
					c8.7-7.8,17.8-15.2,27.4-21.8c9.7-6.5,19.6-12.5,30-17.6c2.6-1.3,5.3-2.4,7.9-3.7l4-1.8l4-1.6c2.7-1.1,5.4-2.2,8.1-3.2l8.2-2.8
					l2.1-0.7l2.1-0.6l4.2-1.2c2.8-0.8,5.5-1.7,8.4-2.3l8.4-2l8.5-1.6C187.4,28.7,156.7,41,129.8,58.9z"/>
				<path class="st1" d="M338.6,27.2c1.6,0.6,3.3,1.1,4.9,1.7c0.8,0.3,1.6,0.5,2.4,0.8l2.4,0.9c1.9,0.7,3.7,1.4,5.6,2.1
					c0.9,0.3,1.9,0.7,2.8,1c0.9,0.4,1.8,0.8,2.7,1.2c-2.2-1.1-4.4-1.9-6.7-2.8c-2.4-0.9-4.7-1.8-7-2.7
					C343.3,28.7,341,27.9,338.6,27.2z"/>
				<path class="st1" d="M237.2,10.5c-0.4,0-0.9,0.1-1.4,0.1c-11.5,1.3-23.1,3.1-34.6,6.1c-15.8,4.1-31.9,9.9-47.6,17.5
					c14.2-6.8,29.1-12.1,43.4-16C211.3,14.3,225.1,12,237.2,10.5z"/>
				<path class="st1" d="M138.5,35.2c-1.7,0.8-4.1,2.3-6.5,3.6c-2.4,1.4-4.9,2.8-6.5,3.7c-1.8,1.3-3.7,2.6-5.5,4
					c3-1.8,5.9-3.8,8.9-5.5l4.7-2.9C135.3,37.1,136.8,36,138.5,35.2z"/>
				<path class="st1" d="M11.5,205.1c7-31.9,20-61.4,37.4-87.3c8.7-12.9,18.4-25,29.2-36c10.7-11,22.4-21,34.8-29.9
					c1.2-0.9,2.3-1.9,3.5-2.7c1.2-0.9,2.4-1.7,3.6-2.6c-4.4,2.7-8.5,5.8-12.7,8.7l-1.6,1.1l-1.5,1.2l-3,2.4c-2,1.6-4,3.1-6,4.8
					c-1.9,1.7-3.8,3.4-5.8,5l-2.9,2.5l-2.7,2.6c-1.8,1.8-3.6,3.5-5.5,5.3c-1.8,1.8-3.5,3.7-5.2,5.5c-6.9,7.3-13.1,15.1-18.9,22.9
					c-1.4,2-2.8,4-4.1,6c-1.3,2-2.8,4-4,6c-1.2,2-2.5,4.1-3.7,6.1c-0.6,1-1.2,2-1.8,3c-0.6,1-1.1,2.1-1.7,3.1
					c-3.6,6.5-8.3,16.5-11.3,23.3c-14.5,31.9-21.3,65.1-22,98.1c0.4-15.8,2.2-31.7,5.7-47.7C11.3,206,11.4,205.5,11.5,205.1z"/>
			</g>
		</g>
	</g>
</g>
<circle class="st2" cx="261.2" cy="257.4" r="216.6"/>
<path class="st3" d="M119.8,174.9c25.2-51.7,78.3-87.3,139.7-87.3c60.6,0,113.1,34.7,138.7,85.4"/>
<rect x="27.1" y="342.6" class="st4" width="467.1" height="71.5"/>
<text transform="matrix(1 0 0 1 97.2222 378.929)" class="st3 st5 st6 st7">the morning brew</text>
<rect x="18.3" y="196.5" class="st4" width="482.2" height="176.4"/>
<text transform="matrix(1 0 0 1 141.7545 323.3846)" class="st8 st9 st10 st11">MB</text>
<polygon class="st3" points="136.6,130.5 118.2,153 105.8,124.1 "/>
<polygon class="st8" points="178.1,96.9 153.5,112.2 151.1,80.8 "/>
<polygon class="st3" points="224.1,81.5 196.5,90.3 201.9,59.3 "/>
<polygon class="st8" points="274.3,77.3 245.3,77.7 259.4,49.6 "/>
<polygon class="st3" points="326.3,89.7 298.2,82.4 319.2,59 "/>
<polygon class="st8" points="365.1,113.4 341,97.4 368.4,82.1 "/>
<polygon class="st3" points="395.8,148.3 376.1,127 406.5,118.7 "/>
</svg>
